<?xml version="1.0" encoding="UTF-8"?>
<svg id="Capa_2" data-name="Capa 2" xmlns="http://www.w3.org/2000/svg" viewBox="0 0 18.99 15.74">
  <defs>
    <style>
      .cls-1 {
        fill: #fff;
      }
    </style>
  </defs>
  <g id="Capa_1-2" data-name="Capa 1">
    <path class="cls-1" d="M2.75,0v2.75H0V0h2.75ZM6.5,3.25v2.75h2.75v-2.75h-2.75ZM3.25,0v2.75h2.75V0h-2.75ZM6.5,0v2.75h2.75V0h-2.75ZM6.5,12.99v2.75h2.75v-2.75h-2.75ZM0,6.5v2.75h2.75v-2.75H0ZM3.25,6.5v2.75h2.75v-2.75h-2.75ZM18.99,12.49v-2.75h-2.75v2.75h2.75ZM12.99,12.99v2.75h2.75v-2.75h-2.75ZM0,12.99v2.75h2.75v-2.75H0ZM3.25,9.74v2.75h2.75v-2.75h-2.75ZM6.5,9.74v2.75h2.75v-2.75h-2.75ZM9.74,3.25v2.75h2.75v-2.75h-2.75ZM16.24,12.99v2.75h2.75v-2.75h-2.75ZM9.74,6.5v2.75h2.75v-2.75h-2.75ZM12.99,6.5v2.75h2.75v-2.75h-2.75ZM12.99,9.74v2.75h2.75v-2.75h-2.75Z"/>
  </g>
</svg>