<?xml version="1.0" encoding="UTF-8"?>
<svg id="Capa_2" data-name="Capa 2" xmlns="http://www.w3.org/2000/svg" viewBox="0 0 223.39 36.15">
  <defs>
    <style>
      .cls-1 {
        fill: #fff;
      }
    </style>
  </defs>
  <g id="Capa_1-2" data-name="Capa 1">
    <path class="cls-1" d="M43.81,27.34h-1.43v-4.28h2.85v4.28h1.43v1.43h9.98v-1.43h1.43v-5.7h-2.85v-1.43h-4.28v-1.43h-4.28v-1.43h-2.85v-1.43h-1.43v-7.13h1.43v-2.85h2.85v-1.43h8.55v1.43h2.85v1.43h1.43v2.85h1.43v2.85h-2.85v-2.85h-1.43v-1.43h-1.43v-1.43h-8.55v1.43h-1.43v5.7h1.43v1.43h5.7v1.43h4.28v1.43h2.85v2.85h1.43v5.7h-1.43v2.85h-2.85v1.43h-9.98v-1.43h-2.85v-2.85ZM68.04,14.51h-2.85v-2.85h2.85v-4.28h2.85v4.28h5.7v2.85h-5.7v14.25h5.7v2.85h-5.7v-1.43h-1.43v-1.43h-1.43v-14.25ZM80.87,28.76h2.85v-14.25h-2.85v-2.85h5.7v2.85h1.43v1.43h-1.43v12.83h4.28v2.85h-9.98v-2.85ZM87.99,13.09h1.43v-1.43h4.28v2.85h-5.7v-1.43ZM96.54,25.91h-1.43v-8.55h1.43v-2.85h1.43v-1.43h1.43v-1.43h8.55v1.43h1.43v1.43h1.43v2.85h1.43v5.7h-14.25v2.85h1.43v1.43h1.43v1.43h7.13v-1.43h1.43v-1.43h2.85v2.85h-1.43v1.43h-2.85v1.43h-8.55v-1.43h-1.43v-1.43h-1.43v-2.85ZM97.97,20.21h11.4v-2.85h-1.43v-1.43h-1.43v-1.43h-5.7v1.43h-1.43v1.43h-1.43v2.85ZM116.5,23.06h1.43v-1.43h2.85v-1.43h7.13v-1.43h1.43v-2.85h-1.43v-1.43h-7.13v1.43h-1.43v1.43h-2.85v-2.85h1.43v-1.43h2.85v-1.43h7.13v1.43h2.85v2.85h1.43v12.83h1.43v2.85h-2.85v-1.43h-1.43v-1.43h-1.43v-1.43h1.43v-5.7h-1.43v1.43h-7.13v1.43h-1.43v4.28h8.55v1.43h-1.43v1.43h-7.13v-1.43h-1.43v-1.43h-1.43v-5.7ZM137.87,11.66h2.85v2.85h1.43v1.43h-1.43v15.68h-2.85V11.66ZM147.85,15.94h-1.43v-1.43h-4.28v-1.43h1.43v-1.43h4.28v1.43h1.43v1.43h1.43v17.1h-2.85v-15.68ZM157.83,15.94h-1.43v-1.43h-5.7v-1.43h1.43v-1.43h5.7v1.43h1.43v1.43h1.43v17.1h-2.85v-15.68ZM164.95,28.76h4.28V7.39h-4.28v-2.85h4.28v1.43h1.43v1.43h1.43v21.38h4.28v2.85h-11.4v-2.85ZM179.21,28.76h4.28v-14.25h-4.28v-2.85h7.13v17.1h4.28v2.85h-11.4v-2.85ZM183.48,4.54h2.85v4.28h-2.85v-4.28ZM193.46,25.91h2.85v1.43h1.43v1.43h8.55v-4.28h-2.85v-1.43h-5.7v-1.43h-2.85v-2.85h-1.42v-2.85h1.42v-2.85h1.42v-1.43h9.98v1.43h1.42v1.43h1.43v2.85h-2.85v-2.85h-8.55v1.43h-1.43v2.85h1.43v1.43h5.7v1.43h4.27v1.43h1.43v5.7h-1.43v1.43h-1.42v1.43h-9.98v-1.43h-1.42v-1.43h-1.42v-2.85ZM214.84,14.51h-2.85v-2.85h2.85v-4.28h2.85v4.28h5.7v2.85h-5.7v14.25h5.7v2.85h-5.7v-1.43h-1.42v-1.43h-1.42v-14.25ZM14.92,22.38v6.31h6.31v-6.31h-6.31ZM0,7.46v6.31h6.31v-6.31H0ZM7.46,7.46v6.31h6.31v-6.31h-6.31ZM14.92,7.46v6.31h6.31v-6.31h-6.31ZM0,0v6.31h6.31V0H0ZM0,29.84v6.31h6.31v-6.31H0ZM0,14.92v6.31h6.31v-6.31H0ZM7.46,14.92v6.31h6.31v-6.31h-6.31ZM14.92,14.92v6.31h6.31v-6.31h-6.31ZM22.38,14.92v6.31h6.31v-6.31h-6.31ZM0,22.38v6.31h6.31v-6.31H0ZM7.46,22.38v6.31h6.31v-6.31h-6.31Z"/>
  </g>
</svg>