<?xml version="1.0" encoding="UTF-8"?>
<svg id="Capa_2" data-name="Capa 2" xmlns="http://www.w3.org/2000/svg" viewBox="0 0 18.99 15.74">
  <defs>
    <style>
      .cls-1 {
        fill: #fff;
      }
    </style>
  </defs>
  <g id="Capa_1-2" data-name="Capa 1">
    <g>
      <g>
        <rect class="cls-1" x="16.24" y="9.74" width="2.75" height="2.75"/>
        <rect class="cls-1" x="16.24" y="12.99" width="2.75" height="2.75"/>
        <rect class="cls-1" x="12.99" y="9.74" width="2.75" height="2.75"/>
        <rect class="cls-1" x="16.24" y="6.5" width="2.75" height="2.75"/>
        <rect class="cls-1" x="12.99" y="6.5" width="2.75" height="2.75"/>
        <rect class="cls-1" x="9.74" y="6.5" width="2.75" height="2.75"/>
        <rect class="cls-1" x="16.24" y="3.25" width="2.75" height="2.75"/>
        <rect class="cls-1" x="16.24" width="2.75" height="2.75"/>
        <rect class="cls-1" x="12.99" y="3.25" width="2.75" height="2.75"/>
      </g>
      <g>
        <rect class="cls-1" x="6.5" y="9.74" width="2.75" height="2.75"/>
        <rect class="cls-1" x="6.5" y="12.99" width="2.75" height="2.75"/>
        <rect class="cls-1" x="3.25" y="9.74" width="2.75" height="2.75"/>
        <rect class="cls-1" x="6.5" y="6.5" width="2.75" height="2.75"/>
        <rect class="cls-1" x="3.25" y="6.5" width="2.75" height="2.75"/>
        <rect class="cls-1" y="6.5" width="2.75" height="2.75"/>
        <rect class="cls-1" x="6.5" y="3.25" width="2.75" height="2.75"/>
        <rect class="cls-1" x="6.5" width="2.75" height="2.75"/>
        <rect class="cls-1" x="3.25" y="3.25" width="2.75" height="2.75"/>
      </g>
    </g>
  </g>
</svg>